<?xml version="1.0" encoding="utf-8" ?>
<svg xmlns="http://www.w3.org/2000/svg" xmlns:xlink="http://www.w3.org/1999/xlink" width="1024" height="1024">
	<path fill="#FEFEFE" fill-opacity="0.031372551" d="M865 1010.75L954.301 1010.46L985.137 1010.23C990.819 1010.22 997.039 1009.73 1002.64 1010.69C997.507 1011.85 991.307 1011.25 986.034 1011.24L951.91 1010.94L865 1010.75Z"/>
	<path fill="#41BD95" d="M505.591 23.7529L508.088 23.7306Q514.151 23.6762 520.213 23.7729Q526.276 23.8697 532.334 24.1176Q538.392 24.3655 544.442 24.7643Q550.492 25.1632 556.531 25.7128Q562.569 26.2624 568.592 26.9623Q574.614 27.6623 580.618 28.5122Q586.621 29.3621 592.601 30.3615Q598.582 31.3608 604.535 32.509Q610.489 33.6571 616.412 34.9533Q622.335 36.2496 628.224 37.6931Q634.112 39.1366 639.964 40.7265Q645.815 42.3163 651.624 44.0516Q657.434 45.7869 663.198 47.6665Q668.963 49.5461 674.679 51.5688Q680.395 53.5916 686.058 55.7562Q691.722 57.9208 697.33 60.226Q702.938 62.5312 708.487 64.9754Q714.035 67.4197 719.521 70.0016Q725.007 72.5835 730.427 75.3013Q735.847 78.0192 741.198 80.8713Q746.548 83.7235 751.826 86.7081Q757.104 89.6928 762.305 92.8081Q767.507 95.9234 772.63 99.1675Q777.752 102.412 782.792 105.782Q787.832 109.153 792.786 112.648Q797.74 116.144 802.606 119.762Q807.471 123.38 812.245 127.118Q817.019 130.856 821.698 134.711Q826.378 138.567 830.959 142.539Q835.541 146.51 840.022 150.594Q844.503 154.679 848.881 158.874Q853.259 163.068 857.531 167.371Q861.818 171.556 865.999 175.847Q870.18 180.138 874.253 184.532Q878.325 188.926 882.286 193.421Q886.248 197.915 890.096 202.507Q893.943 207.1 897.675 211.786Q901.407 216.473 905.021 221.252Q908.634 226.031 912.127 230.898Q915.62 235.766 918.99 240.719Q922.36 245.672 925.606 250.708Q928.851 255.744 931.97 260.86Q935.088 265.975 938.078 271.167Q941.067 276.359 943.926 281.624Q946.785 286.889 949.511 292.224Q952.238 297.558 954.83 302.96Q957.422 308.361 959.879 313.825Q962.335 319.29 964.654 324.814Q966.973 330.338 969.154 335.918Q971.334 341.498 973.374 347.131Q975.414 352.764 977.313 358.447Q979.212 364.129 980.968 369.857Q982.724 375.585 984.336 381.355Q985.949 387.125 987.416 392.933Q988.884 398.742 990.206 404.585Q991.528 410.429 992.704 416.304Q993.879 422.178 994.908 428.08Q995.936 433.982 996.817 439.909Q997.697 445.835 998.429 451.781Q999.161 457.727 999.745 463.69Q1000.33 469.652 1000.76 475.628Q1001.2 481.603 1001.48 487.587Q1001.76 493.572 1001.9 499.561Q1002.03 505.551 1002.02 511.542Q1002.07 517.641 1001.97 523.739Q1001.87 529.837 1001.62 535.931Q1001.36 542.024 1000.96 548.11Q1000.56 554.196 1000.01 560.27Q999.458 566.344 998.756 572.402Q998.055 578.461 997.205 584.5Q996.354 590.539 995.355 596.556Q994.355 602.572 993.208 608.562Q992.061 614.552 990.766 620.512Q989.471 626.472 988.03 632.399Q986.588 638.325 985.001 644.214Q983.414 650.102 981.682 655.95Q979.95 661.798 978.075 667.601Q976.199 673.405 974.181 679.16Q972.162 684.915 970.003 690.619Q967.843 696.323 965.544 701.972Q963.244 707.621 960.806 713.211Q958.368 718.801 955.792 724.33Q953.217 729.858 950.506 735.322Q947.795 740.785 944.95 746.18Q942.105 751.575 939.128 756.898Q936.151 762.22 933.044 767.468Q929.936 772.716 926.7 777.886Q923.464 783.056 920.101 788.144Q916.739 793.232 913.252 798.236Q909.765 803.24 906.156 808.156Q902.546 813.072 898.817 817.898Q895.087 822.723 891.24 827.456Q887.392 832.188 883.429 836.824Q879.466 841.46 875.39 845.996Q871.314 850.533 867.127 854.968Q862.94 859.403 858.645 863.733Q854.465 867.963 850.183 872.09Q845.901 876.216 841.519 880.237Q837.136 884.257 832.657 888.169Q828.177 892.08 823.603 895.881Q819.029 899.681 814.363 903.368Q809.697 907.055 804.942 910.627Q800.187 914.198 795.346 917.652Q790.505 921.106 785.581 924.44Q780.656 927.774 775.651 930.986Q770.647 934.199 765.565 937.287Q760.483 940.376 755.326 943.339Q750.17 946.301 744.943 949.137Q739.715 951.972 734.42 954.679Q729.124 957.385 723.764 959.961Q718.404 962.537 712.982 964.98Q707.56 967.424 702.08 969.733Q696.6 972.043 691.065 974.218Q685.53 976.392 679.943 978.43Q674.357 980.469 668.721 982.369Q663.086 984.27 657.406 986.031Q651.726 987.793 646.005 989.415Q640.283 991.036 634.524 992.518Q628.764 993.998 622.97 995.338Q617.176 996.677 611.351 997.874Q605.525 999.07 599.672 1000.12Q593.819 1001.18 587.943 1002.09Q582.066 1003 576.168 1003.76Q570.271 1004.53 564.356 1005.15Q558.442 1005.77 552.514 1006.24Q546.586 1006.72 540.648 1007.05Q534.71 1007.38 528.766 1007.56Q522.822 1007.74 516.875 1007.78C481.182 1007.18 445.897 1004.26 410.867 997.113Q406.784 996.258 402.715 995.332Q398.647 994.407 394.596 993.411Q390.544 992.416 386.51 991.351Q382.476 990.286 378.461 989.152Q374.446 988.018 370.451 986.815Q366.456 985.612 362.483 984.34Q358.509 983.068 354.558 981.729Q350.607 980.389 346.679 978.981Q342.752 977.574 338.849 976.099Q334.946 974.624 331.07 973.082Q327.193 971.541 323.343 969.932Q319.494 968.324 315.672 966.65Q311.851 964.976 308.059 963.236Q304.267 961.496 300.505 959.691Q296.743 957.887 293.013 956.018Q289.283 954.149 285.586 952.215Q281.889 950.283 278.225 948.286Q274.562 946.29 270.933 944.231Q267.305 942.172 263.712 940.051Q260.119 937.93 256.564 935.747Q253.008 933.564 249.491 931.321Q245.973 929.077 242.495 926.773Q239.016 924.47 235.578 922.107Q232.139 919.743 228.742 917.321Q225.345 914.9 221.99 912.419Q218.635 909.939 215.323 907.402Q212.012 904.865 208.744 902.271Q205.476 899.677 202.254 897.027Q199.031 894.377 195.855 891.672Q192.678 888.967 189.548 886.208Q186.419 883.449 183.337 880.637Q180.256 877.824 177.223 874.959Q172.733 870.765 168.349 866.46Q163.965 862.155 159.689 857.742Q155.414 853.329 151.251 848.81Q147.087 844.291 143.038 839.67Q138.989 835.049 135.056 830.328Q131.123 825.607 127.31 820.789Q123.496 815.972 119.805 811.06Q116.113 806.149 112.545 801.146Q108.977 796.144 105.535 791.054Q102.093 785.964 98.7795 780.79Q95.4659 775.616 92.2826 770.36Q89.0993 765.105 86.0483 759.772Q82.9974 754.438 80.0806 749.031Q77.1638 743.623 74.3831 738.143Q71.6024 732.664 68.9594 727.118Q66.3165 721.571 63.8129 715.96Q61.3094 710.349 58.9469 704.677Q56.5843 699.005 54.3642 693.275Q52.1441 687.546 50.0679 681.763Q47.9917 675.98 46.0606 670.147Q44.1295 664.314 42.3447 658.435Q40.56 652.555 38.9227 646.633Q37.2854 640.711 35.7967 634.75Q34.3079 628.789 32.9685 622.792Q31.6291 616.796 30.44 610.767Q29.2509 604.739 28.2127 598.683Q27.1746 592.627 26.2881 586.547Q25.4017 580.467 24.6674 574.367Q23.9331 568.267 23.3515 562.15Q22.7698 556.033 22.3412 549.904Q21.9126 543.774 21.6373 537.636Q21.362 531.498 21.2401 525.355Q21.1463 519.348 21.1998 513.34Q21.2533 507.332 21.4541 501.327Q21.6549 495.323 22.0028 489.325Q22.3508 483.327 22.8456 477.339Q23.3405 471.352 23.9821 465.378Q24.6236 459.404 25.4114 453.448Q26.1992 447.492 27.1328 441.557Q28.0664 435.622 29.1452 429.711Q30.2241 423.801 31.4475 417.919Q32.6709 412.037 34.0381 406.186Q35.4054 400.336 36.9157 394.521Q38.426 388.706 40.0784 382.929Q41.7308 377.153 43.5243 371.419Q45.3178 365.685 47.2514 359.996Q49.1849 354.308 51.2574 348.669Q53.3298 343.029 55.5399 337.442Q57.75 331.856 60.0964 326.325Q62.4428 320.794 64.9241 315.322Q67.4053 309.85 70.02 304.441Q72.6347 299.032 75.3813 293.688Q78.1278 288.345 81.0045 283.07Q83.8812 277.796 86.8864 272.593Q89.8915 267.391 93.0233 262.264Q96.1551 257.136 99.4117 252.087Q102.668 247.039 106.048 242.071Q109.427 237.103 112.927 232.22Q116.427 227.337 120.046 222.541Q123.665 217.745 127.4 213.04Q131.136 208.334 134.985 203.721Q138.835 199.108 142.796 194.591Q146.758 190.074 150.829 185.656Q154.9 181.237 159.078 176.92C253.391 78.201 369.265 26.7727 505.591 23.7529Z"/>
	<path d="M510.501 112.972Q518.767 119.583 527.533 125.515Q531.073 127.926 534.663 130.264Q538.253 132.601 541.89 134.863Q545.528 137.125 549.212 139.311Q552.896 141.497 556.624 143.606Q560.353 145.715 564.124 147.746Q567.896 149.777 571.708 151.729Q575.521 153.681 579.374 155.554Q583.227 157.426 587.118 159.218Q591.009 161.01 594.936 162.72Q598.863 164.431 602.825 166.059Q606.787 167.688 610.782 169.234Q614.777 170.779 618.803 172.242Q622.829 173.704 626.885 175.083Q630.941 176.461 635.025 177.755Q639.108 179.048 643.218 180.257Q647.327 181.465 651.461 182.588Q655.595 183.711 659.751 184.747Q663.908 185.784 668.084 186.734Q672.261 187.684 676.457 188.546Q680.653 189.409 684.866 190.185Q689.079 190.96 693.307 191.648Q697.535 192.335 701.776 192.935Q706.018 193.534 710.271 194.045Q714.524 194.557 718.786 194.979Q723.049 195.402 727.32 195.736Q731.59 196.07 735.867 196.315Q740.143 196.56 744.424 196.716Q748.705 196.872 752.988 196.939Q757.271 197.006 761.554 196.984Q765.838 196.962 770.12 196.851Q774.402 196.739 778.681 196.539Q782.96 196.339 787.234 196.05C807.923 194.575 827.925 190.953 848.252 187.003C873.839 316.283 873.356 457.419 831.3 583.042Q824.896 602.673 817.13 621.805Q809.365 640.938 800.276 659.479C739.78 780.414 631.409 889.936 510.129 950.321L505.13 952.443C497.409 947.381 488.659 943.637 480.501 939.31Q461.765 929.236 443.958 917.598Q436.301 912.553 428.786 907.298Q421.271 902.043 413.904 896.582Q406.538 891.122 399.325 885.46Q392.112 879.797 385.058 873.938Q378.004 868.079 371.115 862.027Q364.226 855.975 357.507 849.734Q350.788 843.494 344.244 837.071Q337.7 830.647 331.336 824.045Q324.972 817.443 318.793 810.668Q312.614 803.892 306.624 796.949Q300.635 790.005 294.84 782.899Q289.044 775.792 283.448 768.528Q277.851 761.264 272.458 753.848Q267.064 746.433 261.877 738.87Q256.691 731.308 251.715 723.606Q246.74 715.903 241.979 708.066C167.825 584.978 149.095 445.818 159.81 304.592C162.803 265.133 167.232 225.473 176.771 187.007Q193.619 190.663 210.698 193.013C319.373 208.067 423.397 178.98 510.501 112.972Z"/>
	<path fill="#41BD95" d="M515.939 148.385C519.272 150.949 522.295 154.059 525.413 156.891C541.455 171.459 558.892 184.174 577.06 195.946C652.901 245.086 732.806 261.853 822.346 257.476C823.155 273.483 826.351 289.242 826.571 305.319Q812.723 329.517 798.173 353.299L792.342 289.957C710.85 290.688 637.987 270.675 568.321 228.318C550.101 217.239 532.267 205.415 516.344 191.172C502.845 203.215 487.786 213.356 472.651 223.2Q469.355 225.236 466.023 227.214Q462.692 229.192 459.326 231.111Q455.961 233.031 452.562 234.892Q449.164 236.752 445.734 238.554Q442.303 240.355 438.842 242.096Q435.381 243.837 431.89 245.518Q428.399 247.199 424.88 248.818Q421.36 250.438 417.812 251.996Q414.265 253.554 410.691 255.05Q407.117 256.546 403.518 257.979Q399.918 259.412 396.294 260.783Q392.67 262.154 389.023 263.461Q385.376 264.768 381.706 266.011Q378.037 267.255 374.346 268.434Q370.656 269.614 366.945 270.728Q363.234 271.843 359.505 272.893Q355.776 273.943 352.028 274.928Q348.281 275.913 344.518 276.833Q340.754 277.752 336.975 278.606Q333.195 279.46 329.402 280.248Q325.608 281.035 321.802 281.757Q317.995 282.479 314.177 283.134Q310.358 283.789 306.528 284.378Q302.699 284.966 298.86 285.488Q295.021 286.01 291.173 286.464Q287.325 286.919 283.47 287.307Q279.615 287.695 275.754 288.015Q271.893 288.336 268.027 288.589Q264.161 288.842 260.291 289.028Q256.421 289.213 252.548 289.332Q248.676 289.45 244.802 289.501Q240.927 289.552 237.053 289.535C233.938 334.313 232.493 379.256 230.503 424.097Q215.186 403.649 200.121 383.015C199.641 367.942 200.745 352.606 201.526 337.548Q203.537 297.942 206.976 258.435C218.725 258.459 230.512 258.721 242.257 258.447C319.309 256.647 394.078 235.963 459.07 194.166C479.664 180.922 499.004 166.123 515.939 148.385Z"/>
	<path fill="#41BD95" d="M804.07 515.31C805.666 518.872 805.616 562.854 805.751 570.662C798.762 580.963 792.091 591.475 785.083 601.762Q761.167 636.464 735.735 670.07Q719.875 690.663 703.125 710.538Q686.375 730.413 668.766 749.533Q651.158 768.652 632.726 786.978Q614.294 805.304 595.073 822.802C565.236 849.828 533.953 874.921 502.499 900.008Q487.956 889.069 473.694 877.766Q459.433 866.462 445.462 854.801Q431.491 843.14 417.821 831.129Q404.15 819.117 390.787 806.764Q377.425 794.41 364.38 781.722Q351.335 769.034 338.615 756.02Q325.896 743.005 313.51 729.673Q301.124 716.341 289.08 702.699C270.556 681.723 252.01 660.434 235.423 637.888L235.414 630.953Q235.324 608.135 235.796 585.323C255.859 609.996 274.715 635.713 295.418 659.86Q324.955 694.422 356.643 727.024Q388.331 759.626 422.04 790.134Q461.101 825.224 502.484 857.543Q520.342 843.679 537.66 829.145Q554.978 814.612 571.731 799.43Q588.484 784.249 604.648 768.442Q620.811 752.634 636.362 736.224Q667.085 703.141 695.494 668.052Q723.903 632.962 749.868 596.027C757.893 584.745 766.183 573.608 773.985 562.174C784.391 546.923 794.357 531.017 804.07 515.31Z"/>
	<path fill="#FEFEFE" d="M823.305 376.87C825.618 379.185 825.749 424.592 825.889 430.323Q802.187 471.172 776.131 510.561Q750.076 549.951 721.757 587.746C693.844 625.347 665.514 660.774 633.807 695.316Q603.04 728.707 570.12 759.978Q537.201 791.25 502.275 820.263C477.329 802.348 453.866 781.36 431.456 760.395Q373.653 706.425 320.893 647.517Q261.14 579.275 207.166 506.375Q198.097 494.341 189.207 482.174C185.153 476.63 180.358 470.88 177.546 464.595C176.804 462.936 176.575 461.427 176.515 459.625Q176.691 435.435 177.579 411.26C188.67 423.17 197.048 437.955 206.819 450.982L278.802 545.416Q291.203 561.282 304.019 576.816Q316.835 592.349 330.057 607.538Q343.278 622.728 356.896 637.563Q370.514 652.399 384.519 666.869Q398.523 681.34 412.905 695.436Q427.287 709.531 442.036 723.243Q456.785 736.954 471.891 750.271Q486.997 763.588 502.449 776.502C510.33 771 517.267 764.241 524.357 757.776Q539.495 744.164 554.111 729.993Q567.688 716.912 580.896 703.457Q594.104 690.003 606.932 676.186Q619.76 662.369 632.199 648.2Q644.637 634.031 656.676 619.521Q668.715 605.011 680.345 590.172Q691.976 575.333 703.188 560.175Q714.401 545.018 725.187 529.554Q735.973 514.09 746.324 498.332Q772.265 458.652 797.315 418.403C805.927 404.569 813.406 389.839 823.305 376.87Z"/>
	<path fill="#FEFEFE" d="M454.527 311.515C492.91 310.817 531.423 311.441 569.821 311.455L569.892 386C569.828 399.868 569.116 413.691 569.69 427.563L638.65 427.737C654.086 427.72 669.525 427.309 684.954 427.928Q685.468 484.711 685.075 541.495L569.901 541.502C569.589 554.65 570.908 646.865 569.387 650.575Q511.955 651.909 454.523 650.553L454.527 541.598L339.466 541.997C338.359 503.88 339.205 465.717 339.48 427.592L454.483 427.554L454.527 311.515Z"/>
</svg>
